Coordinates
version=1
nRows=13
nColumns=40
inDegrees=yes

Units are S.I. units (second, meters, Newtons, ...)
Angles are in degrees.

endheader
time	pelvis_tilt	pelvis_list	pelvis_rotation	pelvis_tx	pelvis_ty	pelvis_tz	hip_flexion_r	hip_adduction_r	hip_rotation_r	knee_angle_r	knee_angle_r_beta	ankle_angle_r	subtalar_angle_r	mtp_angle_r	hip_flexion_l	hip_adduction_l	hip_rotation_l	knee_angle_l	knee_angle_l_beta	ankle_angle_l	subtalar_angle_l	mtp_angle_l	lumbar_extension	lumbar_bending	lumbar_rotation	arm_flex_r	arm_add_r	arm_rot_r	elbow_flex_r	pro_sup_r	wrist_flex_r	wrist_dev_r	arm_flex_l	arm_add_l	arm_rot_l	elbow_flex_l	pro_sup_l	wrist_flex_l	wrist_dev_l
      4.57000000	     -4.68021141	     -3.09230123	      1.08686503	      0.98723637	      0.90705493	      0.56250337	     18.52304967	      4.93298145	     -6.17179087	     33.43950342	     33.43950342	     19.75325845	    -12.33691644	      1.57013708	     28.43485508	    -12.66377341	      3.32620807	     63.06133336	     63.06133336	     18.82154936	    -19.63374264	     23.58839338	    -11.33745846	      5.20635066	      1.05657345	     17.76319666	    -18.62679843	     -4.07588121	     67.52905615	     45.44677958	      0.00000000	      0.00000000	     11.72736608	     -6.68728599	      2.13993442	     27.71740753	     45.40301521	      0.00000000	      0.00000000
      4.58828571	     -4.65088463	     -3.06813307	      1.41106320	      0.98494853	      0.90711296	      0.56348359	     18.18368314	      4.94865726	     -6.42187487	     33.31287279	     33.31287279	     19.94458509	    -12.38267917	      1.56199245	     29.37165647	    -12.60727404	      3.24910996	     61.48384205	     61.48384205	     19.00723177	    -19.63059942	     23.77045568	    -11.30400173	      5.11989182	      0.86360329	     19.86318675	    -18.24600310	     -4.33774705	     69.84853231	     45.38676659	      0.00000000	      0.00000000	      9.58078253	     -6.70523981	      2.26767443	     26.61890664	     45.35560136	      0.00000000	      0.00000000
      4.60657143	     -4.58943489	     -3.02944146	      1.74670098	      0.98263914	      0.90742338	      0.56440126	     17.73534735	      4.97866814	     -6.61109641	     33.05438549	     33.05438549	     20.08183122	    -12.49904960	      1.61079160	     30.14521498	    -12.48985988	      3.15573753	     59.59629030	     59.59629030	     19.00810342	    -19.62066855	     23.73605794	    -11.36509221	      5.03325194	      0.75390314	     21.88202562	    -17.92761040	     -4.56658590	     72.65504107	     45.31027620	      0.00000000	      0.00000000	      7.38503016	     -6.75233267	      2.41177914	     25.73033112	     45.30270755	      0.00000000	      0.00000000
      4.62485714	     -4.58942454	     -2.96233091	      2.09226261	      0.98032440	      0.90778211	      0.56515926	     17.33184215	      4.94739386	     -6.86931678	     32.76472897	     32.76472897	     20.17292563	    -12.55209942	      1.64512088	     30.86325809	    -12.28551003	      3.04890262	     57.45068211	     57.45068211	     18.77754738	    -19.60773739	     23.31797736	    -11.36505336	      4.92917953	      1.01620405	     23.51679321	    -17.99543664	     -4.82464583	     76.46738884	     45.20424490	      0.00000000	      0.00000000	      5.25573836	     -6.80767449	      2.75559028	     25.34991243	     45.22097234	      0.00000000	      0.00000000
      4.64314286	     -4.53844373	     -2.85753377	      2.43395062	      0.97801127	      0.90859467	      0.56572063	     16.79945136	      4.87092112	     -7.07149147	     32.33559332	     32.33559332	     20.22579489	    -12.47357638	      1.67803191	     31.33169555	    -11.93698321	      3.03716358	     54.97652158	     54.97652158	     18.45141814	    -19.57630628	     23.04429437	    -11.43172016	      4.74745975	      0.98762020	     25.66613152	    -17.67624622	     -5.15938525	     79.21384108	     45.13780076	      0.00000000	      0.00000000	      3.23813689	     -6.91436108	      3.05613160	     24.68312350	     45.14074375	      0.00000000	      0.00000000
      4.66142857	     -4.53125912	     -2.66465584	      2.79978930	      0.97574517	      0.90967193	      0.56595674	     16.25843312	      4.65668158	     -7.38067049	     31.82263194	     31.82263194	     20.26404676	    -12.34743069	      1.70566212	     31.70228962	    -11.46918895	      2.91746705	     52.25402330	     52.25402330	     17.85421400	    -19.52749985	     22.81452834	    -11.36973042	      4.50509285	      1.13261586	     27.90145313	    -17.63694455	     -5.45975628	     81.54631861	     45.08392887	      0.00000000	      0.00000000	      1.40930670	     -6.97382501	      3.28733739	     24.19344852	     45.06935740	      0.00000000	      0.00000000
      4.67971429	     -4.63231727	     -2.49807485	      3.18041530	      0.97347602	      0.91083440	      0.56590324	     15.80287962	      4.39199441	     -7.85527906	     31.24152265	     31.24152265	     20.15085369	    -11.92725885	      1.43122766	     31.99535849	    -10.94691795	      2.89872068	     49.21818421	     49.21818421	     16.50791071	    -19.46589966	     20.65785156	    -11.27497782	      4.31778122	      1.55726738	     29.60654767	    -17.99935733	     -5.73479628	     85.27046570	     44.99565179	      0.00000000	      0.00000000	     -0.60693496	     -7.27674376	      4.43713791	     25.02392249	     44.82750019	      0.00000000	      0.00000000
      4.69800000	     -4.68425302	     -2.25460388	      3.56057641	      0.97128493	      0.91253423	      0.56551088	     15.19354763	      4.06073993	     -8.24219131	     30.48633282	     30.48633282	     20.03080300	    -11.54928683	      1.48050179	     32.09615507	    -10.21970102	      3.04626972	     46.06655716	     46.06655716	     15.69651233	    -19.34229728	     20.55227689	    -11.14663985	      4.04004297	      1.67249088	     32.08121128	    -17.92771484	     -5.99241418	     87.07599667	     44.95976401	      0.00000000	      0.00000000	     -2.14125635	     -7.40387414	      4.77899450	     24.62002862	     44.74299881	      0.00000000	      0.00000000
      4.71628571	     -4.80364701	     -2.03897517	      3.94739811	      0.96914862	      0.91423665	      0.56488898	     14.62603227	      3.66605873	     -8.89466616	     29.68759136	     29.68759136	     19.76900229	    -10.78705542	      0.93580003	     32.01666174	     -9.57926681	      3.07607628	     42.51458879	     42.51458879	     13.47188585	    -19.18614299	     16.84479972	    -10.98129572	      3.79787764	      1.96212138	     34.29088313	    -18.31663378	     -5.89643937	     89.66066273	     44.90873396	      0.00000000	      0.00000000	     -4.12952332	     -7.99673487	      6.87181698	     26.24142951	     44.34784760	      0.00000000	      0.00000000
      4.73457143	     -4.94448670	     -1.84459249	      4.34611024	      0.96714365	      0.91607499	      0.56386354	     14.01217698	      3.24638697	     -9.66654073	     28.78201368	     28.78201368	     19.48111262	     -9.81189135	      0.49444572	     31.87965088	     -8.87904468	      3.29141731	     39.00316800	     39.00316800	     11.61916260	    -18.91693227	     14.26645865	    -10.71477935	      3.63013667	      1.99268865	     36.86119229	    -18.34016149	     -5.79128775	     91.59222681	     44.88311462	      0.00000000	      0.00000000	     -5.97765496	     -8.50120567	      9.32305776	     27.26636533	     43.95630621	      0.00000000	      0.00000000
      4.75285714	     -5.02890768	     -1.71878733	      4.72051823	      0.96526686	      0.91805188	      0.56273615	     13.26661405	      2.96116702	    -10.33563478	     27.73542378	     27.73542378	     19.11008527	     -8.99545526	      0.06664941	     31.58369831	     -8.28870697	      3.54079994	     35.49801370	     35.49801370	      9.80739681	    -18.45005242	     11.85053432	    -10.47463959	      3.53676927	      2.34035007	     39.32505750	    -18.60587572	     -5.94554634	     93.23838950	     44.94056585	      0.00000000	      0.00000000	     -7.57792962	     -9.66962390	     15.51581546	     28.84193651	     43.35475935	      0.00000000	      0.00000000
      4.77114286	     -5.09543949	     -1.57747098	      5.06407692	      0.96351138	      0.92006242	      0.56147803	     12.49594541	      2.67714346	    -10.95938983	     26.70663912	     26.70663912	     18.89401833	     -8.14196561	      0.15934655	     31.26898286	     -7.73019300	      3.75869293	     32.29991570	     32.29991570	      9.11088409	    -17.39597576	     11.94096035	    -10.25775297	      3.37859023	      2.62813895	     41.77118588	    -18.82238172	     -5.99898539	     94.65708257	     44.91138400	      0.00000000	      0.00000000	     -8.66669523	     -9.75480926	     15.62880714	     28.93128956	     43.34132536	      0.00000000	      0.00000000
      4.78942857	     -5.17583314	     -1.53821897	      5.40846084	      0.96193379	      0.92164646	      0.56003262	     11.73496733	      2.39068695	    -12.00090846	     25.72367731	     25.72367731	     18.69949820	     -6.61758706	     -0.33625094	     30.87712552	     -7.39705202	      3.72982412	     29.10533020	     29.10533020	      7.33042945	    -16.25869455	      8.74546155	    -10.01896523	      3.34820842	      2.68644608	     44.30048284	    -19.15022604	     -5.35061485	     96.16132491	     44.87850886	      0.00000000	      0.00000000	    -10.48962222	    -10.27913859	     16.48907384	     31.27271204	     43.30120394	      0.00000000	      0.00000000
